<svg viewBox="0 0 1998.0 1710">
<g style="transform: translate(0,0)">
<g style="stroke:none;stroke-width:0;">
<polygon points="111.0,190  0,0  222,0" style="fill:#9ebdd5;" transform="translate(1665.0,1520)" />
<polygon points="111.0,0  0,190  222,190" style="fill:#27852e;" transform="translate(1554.0,1520)" />
<polygon points="111.0,190  0,0  222,0" style="fill:#2a6798;" transform="translate(1443.0,1520)" />
<polygon points="111.0,0  0,190  222,190" style="fill:#27852e;" transform="translate(1332.0,1520)" />
<polygon points="111.0,190  0,0  222,0" style="fill:#2a6798;" transform="translate(1221.0,1520)" />
<polygon points="111.0,0  0,190  222,190" style="fill:#9dcca0;" transform="translate(1110.0,1520)" />
<polygon points="111.0,190  0,0  222,0" style="fill:#9ebdd5;" transform="translate(999.0,1520)" />
<polygon points="111.0,0  0,190  222,190" style="fill:#3b9942;" transform="translate(888.0,1520)" />
<polygon points="111.0,190  0,0  222,0" style="fill:#3e7bac;" transform="translate(777.0,1520)" />
<polygon points="111.0,0  0,190  222,190" style="fill:#3b9942;" transform="translate(666.0,1520)" />
<polygon points="111.0,190  0,0  222,0" style="fill:#3e7bac;" transform="translate(555.0,1520)" />
<polygon points="111.0,0  0,190  222,190" style="fill:#27852e;" transform="translate(444.0,1520)" />
<polygon points="111.0,190  0,0  222,0" style="fill:#2a6798;" transform="translate(333.0,1520)" />
<polygon points="111.0,0  0,190  222,190" style="fill:#9dcca0;" transform="translate(222.0,1520)" />
<polygon points="111.0,190  0,0  222,0" style="fill:#9ebdd5;" transform="translate(111.0,1520)" />
<polygon points="111.0,190  0,0  222,0" style="fill:#9ebdd5;" transform="translate(1776.0,1330)" />
<polygon points="111.0,0  0,190  222,190" style="fill:#9dcca0;" transform="translate(1665.0,1330)" />
<polygon points="111.0,190  0,0  222,0" style="fill:#2a6798;" transform="translate(1554.0,1330)" />
<polygon points="111.0,0  0,190  222,190" style="fill:#27852e;" transform="translate(1443.0,1330)" />
<polygon points="111.0,190  0,0  222,0" style="fill:#2a6798;" transform="translate(1332.0,1330)" />
<polygon points="111.0,0  0,190  222,190" style="fill:#27852e;" transform="translate(1221.0,1330)" />
<polygon points="111.0,190  0,0  222,0" style="fill:#2a6798;" transform="translate(1110.0,1330)" />
<polygon points="111.0,0  0,190  222,190" style="fill:#9dcca0;" transform="translate(999.0,1330)" />
<polygon points="111.0,190  0,0  222,0" style="fill:#9ebdd5;" transform="translate(888.0,1330)" />
<polygon points="111.0,0  0,190  222,190" style="fill:#3b9942;" transform="translate(777.0,1330)" />
<polygon points="111.0,190  0,0  222,0" style="fill:#3e7bac;" transform="translate(666.0,1330)" />
<polygon points="111.0,0  0,190  222,190" style="fill:#3b9942;" transform="translate(555.0,1330)" />
<polygon points="111.0,190  0,0  222,0" style="fill:#2a6798;" transform="translate(444.0,1330)" />
<polygon points="111.0,0  0,190  222,190" style="fill:#27852e;" transform="translate(333.0,1330)" />
<polygon points="111.0,190  0,0  222,0" style="fill:#2a6798;" transform="translate(222.0,1330)" />
<polygon points="111.0,0  0,190  222,190" style="fill:#9dcca0;" transform="translate(111.0,1330)" />
<polygon points="111.0,190  0,0  222,0" style="fill:#9ebdd5;" transform="translate(0.0,1330)" />
<polygon points="111.0,0  0,190  222,190" style="fill:#9dcca0;" transform="translate(1776.0,1140)" />
<polygon points="111.0,190  0,0  222,0" style="fill:#2a6798;" transform="translate(1665.0,1140)" />
<polygon points="111.0,0  0,190  222,190" style="fill:#27852e;" transform="translate(1554.0,1140)" />
<polygon points="111.0,190  0,0  222,0" style="fill:#2a6798;" transform="translate(1443.0,1140)" />
<polygon points="111.0,0  0,190  222,190" style="fill:#27852e;" transform="translate(1332.0,1140)" />
<polygon points="111.0,190  0,0  222,0" style="fill:#9ebdd5;" transform="translate(1221.0,1140)" />
<polygon points="111.0,0  0,190  222,190" style="fill:#9dcca0;" transform="translate(1110.0,1140)" />
<polygon points="111.0,190  0,0  222,0" style="fill:#9ebdd5;" transform="translate(999.0,1140)" />
<polygon points="111.0,0  0,190  222,190" style="fill:#9dcca0;" transform="translate(888.0,1140)" />
<polygon points="111.0,190  0,0  222,0" style="fill:#9ebdd5;" transform="translate(777.0,1140)" />
<polygon points="111.0,0  0,190  222,190" style="fill:#9dcca0;" transform="translate(666.0,1140)" />
<polygon points="111.0,190  0,0  222,0" style="fill:#9ebdd5;" transform="translate(555.0,1140)" />
<polygon points="111.0,0  0,190  222,190" style="fill:#27852e;" transform="translate(444.0,1140)" />
<polygon points="111.0,190  0,0  222,0" style="fill:#2a6798;" transform="translate(333.0,1140)" />
<polygon points="111.0,0  0,190  222,190" style="fill:#27852e;" transform="translate(222.0,1140)" />
<polygon points="111.0,190  0,0  222,0" style="fill:#2a6798;" transform="translate(111.0,1140)" />
<polygon points="111.0,0  0,190  222,190" style="fill:#27852e;" transform="translate(0.0,1140)" />
<polygon points="111.0,0  0,190  222,190" style="fill:#27852e;" transform="translate(1665.0,950)" />
<polygon points="111.0,190  0,0  222,0" style="fill:#3e7bac;" transform="translate(1554.0,950)" />
<polygon points="111.0,0  0,190  222,190" style="fill:#3b9942;" transform="translate(1443.0,950)" />
<polygon points="111.0,190  0,0  222,0" style="fill:#3e7bac;" transform="translate(1332.0,950)" />
<polygon points="111.0,0  0,190  222,190" style="fill:#9dcca0;" transform="translate(1221.0,950)" />
<polygon points="111.0,190  0,0  222,0" style="fill:#9ebdd5;" transform="translate(1110.0,950)" />
<polygon points="111.0,0  0,190  222,190" style="fill:#9dcca0;" transform="translate(999.0,950)" />
<polygon points="111.0,190  0,0  222,0" style="fill:#9ebdd5;" transform="translate(888.0,950)" />
<polygon points="111.0,0  0,190  222,190" style="fill:#9dcca0;" transform="translate(777.0,950)" />
<polygon points="111.0,190  0,0  222,0" style="fill:#9ebdd5;" transform="translate(666.0,950)" />
<polygon points="111.0,0  0,190  222,190" style="fill:#9dcca0;" transform="translate(555.0,950)" />
<polygon points="111.0,190  0,0  222,0" style="fill:#2a6798;" transform="translate(444.0,950)" />
<polygon points="111.0,0  0,190  222,190" style="fill:#27852e;" transform="translate(333.0,950)" />
<polygon points="111.0,190  0,0  222,0" style="fill:#2a6798;" transform="translate(222.0,950)" />
<polygon points="111.0,0  0,190  222,190" style="fill:#27852e;" transform="translate(111.0,950)" />
<polygon points="111.0,0  0,190  222,190" style="fill:#3b9942;" transform="translate(1554.0,760)" />
<polygon points="111.0,190  0,0  222,0" style="fill:#3e7bac;" transform="translate(1443.0,760)" />
<polygon points="111.0,0  0,190  222,190" style="fill:#3b9942;" transform="translate(1332.0,760)" />
<polygon points="111.0,190  0,0  222,0" style="fill:#9ebdd5;" transform="translate(1221.0,760)" />
<polygon points="111.0,0  0,190  222,190" style="fill:#9dcca0;" transform="translate(1110.0,760)" />
<polygon points="111.0,190  0,0  222,0" style="fill:#9ebdd5;" transform="translate(999.0,760)" />
<polygon points="111.0,0  0,190  222,190" style="fill:#9dcca0;" transform="translate(888.0,760)" />
<polygon points="111.0,190  0,0  222,0" style="fill:#9ebdd5;" transform="translate(777.0,760)" />
<polygon points="111.0,0  0,190  222,190" style="fill:#9dcca0;" transform="translate(666.0,760)" />
<polygon points="111.0,190  0,0  222,0" style="fill:#9ebdd5;" transform="translate(555.0,760)" />
<polygon points="111.0,0  0,190  222,190" style="fill:#9dcca0;" transform="translate(444.0,760)" />
<polygon points="111.0,190  0,0  222,0" style="fill:#9ebdd5;" transform="translate(333.0,760)" />
<polygon points="111.0,0  0,190  222,190" style="fill:#9dcca0;" transform="translate(222.0,760)" />
<polygon points="111.0,0  0,190  222,190" style="fill:#3b9942;" transform="translate(1443.0,570)" />
<polygon points="111.0,190  0,0  222,0" style="fill:#9ebdd5;" transform="translate(1332.0,570)" />
<polygon points="111.0,0  0,190  222,190" style="fill:#9dcca0;" transform="translate(1221.0,570)" />
<polygon points="111.0,190  0,0  222,0" style="fill:#2a6798;" transform="translate(1110.0,570)" />
<polygon points="111.0,0  0,190  222,190" style="fill:#9dcca0;" transform="translate(999.0,570)" />
<polygon points="111.0,190  0,0  222,0" style="fill:#9ebdd5;" transform="translate(888.0,570)" />
<polygon points="111.0,0  0,190  222,190" style="fill:#9dcca0;" transform="translate(777.0,570)" />
<polygon points="111.0,190  0,0  222,0" style="fill:#3e7bac;" transform="translate(666.0,570)" />
<polygon points="111.0,0  0,190  222,190" style="fill:#3b9942;" transform="translate(555.0,570)" />
<polygon points="111.0,190  0,0  222,0" style="fill:#3e7bac;" transform="translate(444.0,570)" />
<polygon points="111.0,0  0,190  222,190" style="fill:#3b9942;" transform="translate(333.0,570)" />
<polygon points="111.0,0  0,190  222,190" style="fill:#9dcca0;" transform="translate(1332.0,380)" />
<polygon points="111.0,190  0,0  222,0" style="fill:#2a6798;" transform="translate(1221.0,380)" />
<polygon points="111.0,0  0,190  222,190" style="fill:#27852e;" transform="translate(1110.0,380)" />
<polygon points="111.0,190  0,0  222,0" style="fill:#2a6798;" transform="translate(999.0,380)" />
<polygon points="111.0,0  0,190  222,190" style="fill:#27852e;" transform="translate(888.0,380)" />
<polygon points="111.0,190  0,0  222,0" style="fill:#2a6798;" transform="translate(777.0,380)" />
<polygon points="111.0,0  0,190  222,190" style="fill:#3b9942;" transform="translate(666.0,380)" />
<polygon points="111.0,190  0,0  222,0" style="fill:#3e7bac;" transform="translate(555.0,380)" />
<polygon points="111.0,0  0,190  222,190" style="fill:#3b9942;" transform="translate(444.0,380)" />
<polygon points="111.0,0  0,190  222,190" style="fill:#27852e;" transform="translate(1221.0,190)" />
<polygon points="111.0,190  0,0  222,0" style="fill:#2a6798;" transform="translate(1110.0,190)" />
<polygon points="111.0,0  0,190  222,190" style="fill:#27852e;" transform="translate(999.0,190)" />
<polygon points="111.0,190  0,0  222,0" style="fill:#2a6798;" transform="translate(888.0,190)" />
<polygon points="111.0,0  0,190  222,190" style="fill:#27852e;" transform="translate(777.0,190)" />
<polygon points="111.0,190  0,0  222,0" style="fill:#2a6798;" transform="translate(666.0,190)" />
<polygon points="111.0,0  0,190  222,190" style="fill:#27852e;" transform="translate(555.0,190)" />
<polygon points="111.0,0  0,190  222,190" style="fill:#27852e;" transform="translate(1110.0,0)" />
<polygon points="111.0,190  0,0  222,0" style="fill:#9ebdd5;" transform="translate(999.0,0)" />
<polygon points="111.0,0  0,190  222,190" style="fill:#9dcca0;" transform="translate(888.0,0)" />
<polygon points="111.0,190  0,0  222,0" style="fill:#9ebdd5;" transform="translate(777.0,0)" />
<polygon points="111.0,0  0,190  222,190" style="fill:#9dcca0;" transform="translate(666.0,0)" />
</g>
</g>
</svg>
