<svg viewBox="0 0 960.0 720.0">
<g font-weight="800" font-family="sans-serif" font-size="52px">
<defs><clipPath id="cp_portfolio"><rect x="0" y="0" width="960.0" height="720.0"/></clipPath></defs>
<g clip-path="url(#cp_portfolio)">
<rect x="0" y="0" width="960" height="720" fill="#ffd54f"/>
<rect x="410" y="250" width="250" height="55" transform="translate(-125.0,-27.5)" fill="#f4511e"/>
<rect x="410" y="320" width="250" height="55" transform="translate(-125.0,-27.5)" fill="#f4511e"/>
<rect x="410" y="390" width="250" height="55" transform="translate(-125.0,-27.5)" fill="#f4511e"/>
<rect x="410" y="460" width="250" height="55" transform="translate(-125.0,-27.5)" fill="#f4511e"/>
<rect x="410" y="530" width="250" height="55" transform="translate(-125.0,-27.5)" fill="#f4511e"/>
<rect x="410" y="600" width="250" height="55" transform="translate(-125.0,-27.5)" fill="#f4511e"/>
<rect x="410" y="670" width="250" height="55" transform="translate(-125.0,-27.5)" fill="#f4511e"/>
<text x="410" y="250" text-anchor="middle" transform="translate(0,2.5%)" dominant-baseline="central" stroke-width="0" fill="#e0e0e0" font-size="42px" stroke="none">CVC4</text>
<text x="410" y="320" text-anchor="middle" transform="translate(0,2.5%)" dominant-baseline="central" stroke-width="0" fill="#e0e0e0" font-size="42px" stroke="none">Choco</text>
<text x="410" y="390" text-anchor="middle" transform="translate(0,2.5%)" dominant-baseline="central" stroke-width="0" fill="#e0e0e0" font-size="42px" stroke="none">OpenSMT</text>
<text x="410" y="460" text-anchor="middle" transform="translate(0,2.5%)" dominant-baseline="central" stroke-width="0" fill="#e0e0e0" font-size="42px" stroke="none">STP</text>
<text x="410" y="530" text-anchor="middle" transform="translate(0,2.5%)" dominant-baseline="central" stroke-width="0" fill="#e0e0e0" font-size="42px" stroke="none">Z3</text>
<text x="410" y="600" text-anchor="middle" transform="translate(0,2.5%)" dominant-baseline="central" stroke-width="0" fill="#e0e0e0" font-size="42px" stroke="none">LattE</text>
<text x="410" y="670" text-anchor="middle" transform="translate(0,2.5%)" dominant-baseline="central" stroke-width="0" fill="#e0e0e0" font-size="42px" stroke="none">Barvinok</text>
<g stroke-width="5" fill="none" font-size="42px" stroke="#212121">
<line x1="200.0" y1="250.0" x2="280.0" y2="250.0"/>
<polyline points="268.7,238.7 280.0,250.0 268.7,261.3" fill="none" stroke-linecap="square" stroke-linejoin="miter"/>
</g>
<g stroke-width="5" fill="none" font-size="42px" stroke="#212121">
<line x1="200.0" y1="320.0" x2="280.0" y2="320.0"/>
<polyline points="268.7,308.7 280.0,320.0 268.7,331.3" fill="none" stroke-linecap="square" stroke-linejoin="miter"/>
</g>
<g stroke-width="5" fill="none" font-size="42px" stroke="#212121">
<line x1="200.0" y1="390.0" x2="280.0" y2="390.0"/>
<polyline points="268.7,378.7 280.0,390.0 268.7,401.3" fill="none" stroke-linecap="square" stroke-linejoin="miter"/>
</g>
<g stroke-width="5" fill="none" font-size="42px" stroke="#212121">
<line x1="200.0" y1="460.0" x2="280.0" y2="460.0"/>
<polyline points="268.7,448.7 280.0,460.0 268.7,471.3" fill="none" stroke-linecap="square" stroke-linejoin="miter"/>
</g>
<g stroke-width="5" fill="none" font-size="42px" stroke="#212121">
<line x1="200.0" y1="530.0" x2="280.0" y2="530.0"/>
<polyline points="268.7,518.7 280.0,530.0 268.7,541.3" fill="none" stroke-linecap="square" stroke-linejoin="miter"/>
</g>
<g stroke-width="5" fill="none" font-size="42px" stroke="#212121">
<line x1="200.0" y1="600.0" x2="280.0" y2="600.0"/>
<polyline points="268.7,588.7 280.0,600.0 268.7,611.3" fill="none" stroke-linecap="square" stroke-linejoin="miter"/>
</g>
<g stroke-width="5" fill="none" font-size="42px" stroke="#212121">
<line x1="200.0" y1="670.0" x2="280.0" y2="670.0"/>
<polyline points="268.7,658.7 280.0,670.0 268.7,681.3" fill="none" stroke-linecap="square" stroke-linejoin="miter"/>
</g>
<line x1="200" y1="670" x2="200" y2="150" stroke-width="5" fill="none" stroke-linecap="round" font-size="42px" stroke="#212121"/>
<g stroke-width="5" fill="none" stroke-linecap="round" font-size="42px" stroke="#212121">
<line x1="760.0" y1="460.0" x2="760.0" y2="167.0"/>
<polyline points="748.0,179.0 760.0,167.0 772.0,179.0" fill="none" stroke-linecap="square" stroke-linejoin="miter"/>
</g>
<line x1="760" y1="460" x2="680" y2="460" stroke-width="5" fill="none" stroke-linecap="round" font-size="42px" stroke="#212121"/>
<line x1="670" y1="460" x2="662" y2="460" stroke-width="5" fill="none" stroke-linecap="round" font-size="42px" stroke="#212121"/>
<line x1="650" y1="460" x2="642" y2="460" stroke-width="5" fill="none" stroke-linecap="round" font-size="42px" stroke="#212121"/>
<line x1="630" y1="460" x2="622" y2="460" stroke-width="5" fill="none" stroke-linecap="round" font-size="42px" stroke="#212121"/>
<g transform="translate(480.0,-160.0)scale(2.1)translate(-180,-153)">
<g style="transform: translate(0,207)">
<g style="stroke:none;stroke-width:0;">
<polygon points="20,34  0,0  40,0" style="fill:#9ebdd5;" transform="translate(300,272)" />
<polygon points="20,0  0,34  40,34" style="fill:#27852e;" transform="translate(280,272)" />
<polygon points="20,34  0,0  40,0" style="fill:#2a6798;" transform="translate(260,272)" />
<polygon points="20,0  0,34  40,34" style="fill:#27852e;" transform="translate(240,272)" />
<polygon points="20,34  0,0  40,0" style="fill:#2a6798;" transform="translate(220,272)" />
<polygon points="20,0  0,34  40,34" style="fill:#9dcca0;" transform="translate(200,272)" />
<polygon points="20,34  0,0  40,0" style="fill:#9ebdd5;" transform="translate(180,272)" />
<polygon points="20,0  0,34  40,34" style="fill:#3b9942;" transform="translate(160,272)" />
<polygon points="20,34  0,0  40,0" style="fill:#3e7bac;" transform="translate(140,272)" />
<polygon points="20,0  0,34  40,34" style="fill:#3b9942;" transform="translate(120,272)" />
<polygon points="20,34  0,0  40,0" style="fill:#3e7bac;" transform="translate(100,272)" />
<polygon points="20,0  0,34  40,34" style="fill:#27852e;" transform="translate(80,272)" />
<polygon points="20,34  0,0  40,0" style="fill:#2a6798;" transform="translate(60,272)" />
<polygon points="20,0  0,34  40,34" style="fill:#9dcca0;" transform="translate(40,272)" />
<polygon points="20,34  0,0  40,0" style="fill:#9ebdd5;" transform="translate(20,272)" />
<polygon points="20,34  0,0  40,0" style="fill:#9ebdd5;" transform="translate(320,238)" />
<polygon points="20,0  0,34  40,34" style="fill:#9dcca0;" transform="translate(300,238)" />
<polygon points="20,34  0,0  40,0" style="fill:#2a6798;" transform="translate(280,238)" />
<polygon points="20,0  0,34  40,34" style="fill:#27852e;" transform="translate(260,238)" />
<polygon points="20,34  0,0  40,0" style="fill:#2a6798;" transform="translate(240,238)" />
<polygon points="20,0  0,34  40,34" style="fill:#27852e;" transform="translate(220,238)" />
<polygon points="20,34  0,0  40,0" style="fill:#2a6798;" transform="translate(200,238)" />
<polygon points="20,0  0,34  40,34" style="fill:#9dcca0;" transform="translate(180,238)" />
<polygon points="20,34  0,0  40,0" style="fill:#9ebdd5;" transform="translate(160,238)" />
<polygon points="20,0  0,34  40,34" style="fill:#3b9942;" transform="translate(140,238)" />
<polygon points="20,34  0,0  40,0" style="fill:#3e7bac;" transform="translate(120,238)" />
<polygon points="20,0  0,34  40,34" style="fill:#3b9942;" transform="translate(100,238)" />
<polygon points="20,34  0,0  40,0" style="fill:#2a6798;" transform="translate(80,238)" />
<polygon points="20,0  0,34  40,34" style="fill:#27852e;" transform="translate(60,238)" />
<polygon points="20,34  0,0  40,0" style="fill:#2a6798;" transform="translate(40,238)" />
<polygon points="20,0  0,34  40,34" style="fill:#9dcca0;" transform="translate(20,238)" />
<polygon points="20,34  0,0  40,0" style="fill:#9ebdd5;" transform="translate(0,238)" />
<polygon points="20,0  0,34  40,34" style="fill:#9dcca0;" transform="translate(320,204)" />
<polygon points="20,34  0,0  40,0" style="fill:#2a6798;" transform="translate(300,204)" />
<polygon points="20,0  0,34  40,34" style="fill:#27852e;" transform="translate(280,204)" />
<polygon points="20,34  0,0  40,0" style="fill:#2a6798;" transform="translate(260,204)" />
<polygon points="20,0  0,34  40,34" style="fill:#27852e;" transform="translate(240,204)" />
<polygon points="20,34  0,0  40,0" style="fill:#9ebdd5;" transform="translate(220,204)" />
<polygon points="20,0  0,34  40,34" style="fill:#9dcca0;" transform="translate(200,204)" />
<polygon points="20,34  0,0  40,0" style="fill:#9ebdd5;" transform="translate(180,204)" />
<polygon points="20,0  0,34  40,34" style="fill:#9dcca0;" transform="translate(160,204)" />
<polygon points="20,34  0,0  40,0" style="fill:#9ebdd5;" transform="translate(140,204)" />
<polygon points="20,0  0,34  40,34" style="fill:#9dcca0;" transform="translate(120,204)" />
<polygon points="20,34  0,0  40,0" style="fill:#9ebdd5;" transform="translate(100,204)" />
<polygon points="20,0  0,34  40,34" style="fill:#27852e;" transform="translate(80,204)" />
<polygon points="20,34  0,0  40,0" style="fill:#2a6798;" transform="translate(60,204)" />
<polygon points="20,0  0,34  40,34" style="fill:#27852e;" transform="translate(40,204)" />
<polygon points="20,34  0,0  40,0" style="fill:#2a6798;" transform="translate(20,204)" />
<polygon points="20,0  0,34  40,34" style="fill:#27852e;" transform="translate(0,204)" />
<polygon points="20,0  0,34  40,34" style="fill:#27852e;" transform="translate(300,170)" />
<polygon points="20,34  0,0  40,0" style="fill:#3e7bac;" transform="translate(280,170)" />
<polygon points="20,0  0,34  40,34" style="fill:#3b9942;" transform="translate(260,170)" />
<polygon points="20,34  0,0  40,0" style="fill:#3e7bac;" transform="translate(240,170)" />
<polygon points="20,0  0,34  40,34" style="fill:#9dcca0;" transform="translate(220,170)" />
<polygon points="20,34  0,0  40,0" style="fill:#9ebdd5;" transform="translate(200,170)" />
<polygon points="20,0  0,34  40,34" style="fill:#9dcca0;" transform="translate(180,170)" />
<polygon points="20,34  0,0  40,0" style="fill:#9ebdd5;" transform="translate(160,170)" />
<polygon points="20,0  0,34  40,34" style="fill:#9dcca0;" transform="translate(140,170)" />
<polygon points="20,34  0,0  40,0" style="fill:#9ebdd5;" transform="translate(120,170)" />
<polygon points="20,0  0,34  40,34" style="fill:#9dcca0;" transform="translate(100,170)" />
<polygon points="20,34  0,0  40,0" style="fill:#2a6798;" transform="translate(80,170)" />
<polygon points="20,0  0,34  40,34" style="fill:#27852e;" transform="translate(60,170)" />
<polygon points="20,34  0,0  40,0" style="fill:#2a6798;" transform="translate(40,170)" />
<polygon points="20,0  0,34  40,34" style="fill:#27852e;" transform="translate(20,170)" />
<polygon points="20,0  0,34  40,34" style="fill:#3b9942;" transform="translate(280,136)" />
<polygon points="20,34  0,0  40,0" style="fill:#3e7bac;" transform="translate(260,136)" />
<polygon points="20,0  0,34  40,34" style="fill:#3b9942;" transform="translate(240,136)" />
<polygon points="20,34  0,0  40,0" style="fill:#9ebdd5;" transform="translate(220,136)" />
<polygon points="20,0  0,34  40,34" style="fill:#9dcca0;" transform="translate(200,136)" />
<polygon points="20,34  0,0  40,0" style="fill:#9ebdd5;" transform="translate(180,136)" />
<polygon points="20,0  0,34  40,34" style="fill:#9dcca0;" transform="translate(160,136)" />
<polygon points="20,34  0,0  40,0" style="fill:#9ebdd5;" transform="translate(140,136)" />
<polygon points="20,0  0,34  40,34" style="fill:#9dcca0;" transform="translate(120,136)" />
<polygon points="20,34  0,0  40,0" style="fill:#9ebdd5;" transform="translate(100,136)" />
<polygon points="20,0  0,34  40,34" style="fill:#9dcca0;" transform="translate(80,136)" />
<polygon points="20,34  0,0  40,0" style="fill:#9ebdd5;" transform="translate(60,136)" />
<polygon points="20,0  0,34  40,34" style="fill:#9dcca0;" transform="translate(40,136)" />
<polygon points="20,0  0,34  40,34" style="fill:#3b9942;" transform="translate(260,102)" />
<polygon points="20,34  0,0  40,0" style="fill:#9ebdd5;" transform="translate(240,102)" />
<polygon points="20,0  0,34  40,34" style="fill:#9dcca0;" transform="translate(220,102)" />
<polygon points="20,34  0,0  40,0" style="fill:#2a6798;" transform="translate(200,102)" />
<polygon points="20,0  0,34  40,34" style="fill:#9dcca0;" transform="translate(180,102)" />
<polygon points="20,34  0,0  40,0" style="fill:#9ebdd5;" transform="translate(160,102)" />
<polygon points="20,0  0,34  40,34" style="fill:#9dcca0;" transform="translate(140,102)" />
<polygon points="20,34  0,0  40,0" style="fill:#3e7bac;" transform="translate(120,102)" />
<polygon points="20,0  0,34  40,34" style="fill:#3b9942;" transform="translate(100,102)" />
<polygon points="20,34  0,0  40,0" style="fill:#3e7bac;" transform="translate(80,102)" />
<polygon points="20,0  0,34  40,34" style="fill:#3b9942;" transform="translate(60,102)" />
<polygon points="20,0  0,34  40,34" style="fill:#9dcca0;" transform="translate(240,68)" />
<polygon points="20,34  0,0  40,0" style="fill:#2a6798;" transform="translate(220,68)" />
<polygon points="20,0  0,34  40,34" style="fill:#27852e;" transform="translate(200,68)" />
<polygon points="20,34  0,0  40,0" style="fill:#2a6798;" transform="translate(180,68)" />
<polygon points="20,0  0,34  40,34" style="fill:#27852e;" transform="translate(160,68)" />
<polygon points="20,34  0,0  40,0" style="fill:#2a6798;" transform="translate(140,68)" />
<polygon points="20,0  0,34  40,34" style="fill:#3b9942;" transform="translate(120,68)" />
<polygon points="20,34  0,0  40,0" style="fill:#3e7bac;" transform="translate(100,68)" />
<polygon points="20,0  0,34  40,34" style="fill:#3b9942;" transform="translate(80,68)" />
<polygon points="20,0  0,34  40,34" style="fill:#27852e;" transform="translate(220,34)" />
<polygon points="20,34  0,0  40,0" style="fill:#2a6798;" transform="translate(200,34)" />
<polygon points="20,0  0,34  40,34" style="fill:#27852e;" transform="translate(180,34)" />
<polygon points="20,34  0,0  40,0" style="fill:#2a6798;" transform="translate(160,34)" />
<polygon points="20,0  0,34  40,34" style="fill:#27852e;" transform="translate(140,34)" />
<polygon points="20,34  0,0  40,0" style="fill:#2a6798;" transform="translate(120,34)" />
<polygon points="20,0  0,34  40,34" style="fill:#27852e;" transform="translate(100,34)" />
<polygon points="20,0  0,34  40,34" style="fill:#27852e;" transform="translate(200,0)" />
<polygon points="20,34  0,0  40,0" style="fill:#9ebdd5;" transform="translate(180,0)" />
<polygon points="20,0  0,34  40,34" style="fill:#9dcca0;" transform="translate(160,0)" />
<polygon points="20,34  0,0  40,0" style="fill:#9ebdd5;" transform="translate(140,0)" />
<polygon points="20,0  0,34  40,34" style="fill:#9dcca0;" transform="translate(120,0)" />
</g>
</g>
</g>
</g><!-- portfolio -->
</g>
</svg>
