<svg viewBox="0 0 960.0 720.0">
<g font-weight="800" font-family="sans-serif" font-size="52px">
<defs><clipPath id="cp_share"><rect x="0" y="0" width="960.0" height="720.0"/></clipPath></defs>
<g clip-path="url(#cp_share)">
<rect x="0" y="0" width="960" height="720" fill="#7e57c2"/>
<g transform="translate(328.0,247.0)scale(0.5)translate(-180,-153)">
<g style="transform: translate(0,207)">
<g style="stroke:none;stroke-width:0;">
<polygon points="20,34  0,0  40,0" style="fill:#9ebdd5;" transform="translate(300,272)" />
<polygon points="20,0  0,34  40,34" style="fill:#27852e;" transform="translate(280,272)" />
<polygon points="20,34  0,0  40,0" style="fill:#2a6798;" transform="translate(260,272)" />
<polygon points="20,0  0,34  40,34" style="fill:#27852e;" transform="translate(240,272)" />
<polygon points="20,34  0,0  40,0" style="fill:#2a6798;" transform="translate(220,272)" />
<polygon points="20,0  0,34  40,34" style="fill:#9dcca0;" transform="translate(200,272)" />
<polygon points="20,34  0,0  40,0" style="fill:#9ebdd5;" transform="translate(180,272)" />
<polygon points="20,0  0,34  40,34" style="fill:#3b9942;" transform="translate(160,272)" />
<polygon points="20,34  0,0  40,0" style="fill:#3e7bac;" transform="translate(140,272)" />
<polygon points="20,0  0,34  40,34" style="fill:#3b9942;" transform="translate(120,272)" />
<polygon points="20,34  0,0  40,0" style="fill:#3e7bac;" transform="translate(100,272)" />
<polygon points="20,0  0,34  40,34" style="fill:#27852e;" transform="translate(80,272)" />
<polygon points="20,34  0,0  40,0" style="fill:#2a6798;" transform="translate(60,272)" />
<polygon points="20,0  0,34  40,34" style="fill:#9dcca0;" transform="translate(40,272)" />
<polygon points="20,34  0,0  40,0" style="fill:#9ebdd5;" transform="translate(20,272)" />
<polygon points="20,34  0,0  40,0" style="fill:#9ebdd5;" transform="translate(320,238)" />
<polygon points="20,0  0,34  40,34" style="fill:#9dcca0;" transform="translate(300,238)" />
<polygon points="20,34  0,0  40,0" style="fill:#2a6798;" transform="translate(280,238)" />
<polygon points="20,0  0,34  40,34" style="fill:#27852e;" transform="translate(260,238)" />
<polygon points="20,34  0,0  40,0" style="fill:#2a6798;" transform="translate(240,238)" />
<polygon points="20,0  0,34  40,34" style="fill:#27852e;" transform="translate(220,238)" />
<polygon points="20,34  0,0  40,0" style="fill:#2a6798;" transform="translate(200,238)" />
<polygon points="20,0  0,34  40,34" style="fill:#9dcca0;" transform="translate(180,238)" />
<polygon points="20,34  0,0  40,0" style="fill:#9ebdd5;" transform="translate(160,238)" />
<polygon points="20,0  0,34  40,34" style="fill:#3b9942;" transform="translate(140,238)" />
<polygon points="20,34  0,0  40,0" style="fill:#3e7bac;" transform="translate(120,238)" />
<polygon points="20,0  0,34  40,34" style="fill:#3b9942;" transform="translate(100,238)" />
<polygon points="20,34  0,0  40,0" style="fill:#2a6798;" transform="translate(80,238)" />
<polygon points="20,0  0,34  40,34" style="fill:#27852e;" transform="translate(60,238)" />
<polygon points="20,34  0,0  40,0" style="fill:#2a6798;" transform="translate(40,238)" />
<polygon points="20,0  0,34  40,34" style="fill:#9dcca0;" transform="translate(20,238)" />
<polygon points="20,34  0,0  40,0" style="fill:#9ebdd5;" transform="translate(0,238)" />
<polygon points="20,0  0,34  40,34" style="fill:#9dcca0;" transform="translate(320,204)" />
<polygon points="20,34  0,0  40,0" style="fill:#2a6798;" transform="translate(300,204)" />
<polygon points="20,0  0,34  40,34" style="fill:#27852e;" transform="translate(280,204)" />
<polygon points="20,34  0,0  40,0" style="fill:#2a6798;" transform="translate(260,204)" />
<polygon points="20,0  0,34  40,34" style="fill:#27852e;" transform="translate(240,204)" />
<polygon points="20,34  0,0  40,0" style="fill:#9ebdd5;" transform="translate(220,204)" />
<polygon points="20,0  0,34  40,34" style="fill:#9dcca0;" transform="translate(200,204)" />
<polygon points="20,34  0,0  40,0" style="fill:#9ebdd5;" transform="translate(180,204)" />
<polygon points="20,0  0,34  40,34" style="fill:#9dcca0;" transform="translate(160,204)" />
<polygon points="20,34  0,0  40,0" style="fill:#9ebdd5;" transform="translate(140,204)" />
<polygon points="20,0  0,34  40,34" style="fill:#9dcca0;" transform="translate(120,204)" />
<polygon points="20,34  0,0  40,0" style="fill:#9ebdd5;" transform="translate(100,204)" />
<polygon points="20,0  0,34  40,34" style="fill:#27852e;" transform="translate(80,204)" />
<polygon points="20,34  0,0  40,0" style="fill:#2a6798;" transform="translate(60,204)" />
<polygon points="20,0  0,34  40,34" style="fill:#27852e;" transform="translate(40,204)" />
<polygon points="20,34  0,0  40,0" style="fill:#2a6798;" transform="translate(20,204)" />
<polygon points="20,0  0,34  40,34" style="fill:#27852e;" transform="translate(0,204)" />
<polygon points="20,0  0,34  40,34" style="fill:#27852e;" transform="translate(300,170)" />
<polygon points="20,34  0,0  40,0" style="fill:#3e7bac;" transform="translate(280,170)" />
<polygon points="20,0  0,34  40,34" style="fill:#3b9942;" transform="translate(260,170)" />
<polygon points="20,34  0,0  40,0" style="fill:#3e7bac;" transform="translate(240,170)" />
<polygon points="20,0  0,34  40,34" style="fill:#9dcca0;" transform="translate(220,170)" />
<polygon points="20,34  0,0  40,0" style="fill:#9ebdd5;" transform="translate(200,170)" />
<polygon points="20,0  0,34  40,34" style="fill:#9dcca0;" transform="translate(180,170)" />
<polygon points="20,34  0,0  40,0" style="fill:#9ebdd5;" transform="translate(160,170)" />
<polygon points="20,0  0,34  40,34" style="fill:#9dcca0;" transform="translate(140,170)" />
<polygon points="20,34  0,0  40,0" style="fill:#9ebdd5;" transform="translate(120,170)" />
<polygon points="20,0  0,34  40,34" style="fill:#9dcca0;" transform="translate(100,170)" />
<polygon points="20,34  0,0  40,0" style="fill:#2a6798;" transform="translate(80,170)" />
<polygon points="20,0  0,34  40,34" style="fill:#27852e;" transform="translate(60,170)" />
<polygon points="20,34  0,0  40,0" style="fill:#2a6798;" transform="translate(40,170)" />
<polygon points="20,0  0,34  40,34" style="fill:#27852e;" transform="translate(20,170)" />
<polygon points="20,0  0,34  40,34" style="fill:#3b9942;" transform="translate(280,136)" />
<polygon points="20,34  0,0  40,0" style="fill:#3e7bac;" transform="translate(260,136)" />
<polygon points="20,0  0,34  40,34" style="fill:#3b9942;" transform="translate(240,136)" />
<polygon points="20,34  0,0  40,0" style="fill:#9ebdd5;" transform="translate(220,136)" />
<polygon points="20,0  0,34  40,34" style="fill:#9dcca0;" transform="translate(200,136)" />
<polygon points="20,34  0,0  40,0" style="fill:#9ebdd5;" transform="translate(180,136)" />
<polygon points="20,0  0,34  40,34" style="fill:#9dcca0;" transform="translate(160,136)" />
<polygon points="20,34  0,0  40,0" style="fill:#9ebdd5;" transform="translate(140,136)" />
<polygon points="20,0  0,34  40,34" style="fill:#9dcca0;" transform="translate(120,136)" />
<polygon points="20,34  0,0  40,0" style="fill:#9ebdd5;" transform="translate(100,136)" />
<polygon points="20,0  0,34  40,34" style="fill:#9dcca0;" transform="translate(80,136)" />
<polygon points="20,34  0,0  40,0" style="fill:#9ebdd5;" transform="translate(60,136)" />
<polygon points="20,0  0,34  40,34" style="fill:#9dcca0;" transform="translate(40,136)" />
<polygon points="20,0  0,34  40,34" style="fill:#3b9942;" transform="translate(260,102)" />
<polygon points="20,34  0,0  40,0" style="fill:#9ebdd5;" transform="translate(240,102)" />
<polygon points="20,0  0,34  40,34" style="fill:#9dcca0;" transform="translate(220,102)" />
<polygon points="20,34  0,0  40,0" style="fill:#2a6798;" transform="translate(200,102)" />
<polygon points="20,0  0,34  40,34" style="fill:#9dcca0;" transform="translate(180,102)" />
<polygon points="20,34  0,0  40,0" style="fill:#9ebdd5;" transform="translate(160,102)" />
<polygon points="20,0  0,34  40,34" style="fill:#9dcca0;" transform="translate(140,102)" />
<polygon points="20,34  0,0  40,0" style="fill:#3e7bac;" transform="translate(120,102)" />
<polygon points="20,0  0,34  40,34" style="fill:#3b9942;" transform="translate(100,102)" />
<polygon points="20,34  0,0  40,0" style="fill:#3e7bac;" transform="translate(80,102)" />
<polygon points="20,0  0,34  40,34" style="fill:#3b9942;" transform="translate(60,102)" />
<polygon points="20,0  0,34  40,34" style="fill:#9dcca0;" transform="translate(240,68)" />
<polygon points="20,34  0,0  40,0" style="fill:#2a6798;" transform="translate(220,68)" />
<polygon points="20,0  0,34  40,34" style="fill:#27852e;" transform="translate(200,68)" />
<polygon points="20,34  0,0  40,0" style="fill:#2a6798;" transform="translate(180,68)" />
<polygon points="20,0  0,34  40,34" style="fill:#27852e;" transform="translate(160,68)" />
<polygon points="20,34  0,0  40,0" style="fill:#2a6798;" transform="translate(140,68)" />
<polygon points="20,0  0,34  40,34" style="fill:#3b9942;" transform="translate(120,68)" />
<polygon points="20,34  0,0  40,0" style="fill:#3e7bac;" transform="translate(100,68)" />
<polygon points="20,0  0,34  40,34" style="fill:#3b9942;" transform="translate(80,68)" />
<polygon points="20,0  0,34  40,34" style="fill:#27852e;" transform="translate(220,34)" />
<polygon points="20,34  0,0  40,0" style="fill:#2a6798;" transform="translate(200,34)" />
<polygon points="20,0  0,34  40,34" style="fill:#27852e;" transform="translate(180,34)" />
<polygon points="20,34  0,0  40,0" style="fill:#2a6798;" transform="translate(160,34)" />
<polygon points="20,0  0,34  40,34" style="fill:#27852e;" transform="translate(140,34)" />
<polygon points="20,34  0,0  40,0" style="fill:#2a6798;" transform="translate(120,34)" />
<polygon points="20,0  0,34  40,34" style="fill:#27852e;" transform="translate(100,34)" />
<polygon points="20,0  0,34  40,34" style="fill:#27852e;" transform="translate(200,0)" />
<polygon points="20,34  0,0  40,0" style="fill:#9ebdd5;" transform="translate(180,0)" />
<polygon points="20,0  0,34  40,34" style="fill:#9dcca0;" transform="translate(160,0)" />
<polygon points="20,34  0,0  40,0" style="fill:#9ebdd5;" transform="translate(140,0)" />
<polygon points="20,0  0,34  40,34" style="fill:#9dcca0;" transform="translate(120,0)" />
</g>
</g>
</g>
<g transform="translate(632.0,247.0)scale(0.5)translate(-180,-153)">
<g style="transform: translate(0,207)">
<g style="stroke:none;stroke-width:0;">
<polygon points="20,34  0,0  40,0" style="fill:#9ebdd5;" transform="translate(300,272)" />
<polygon points="20,0  0,34  40,34" style="fill:#27852e;" transform="translate(280,272)" />
<polygon points="20,34  0,0  40,0" style="fill:#2a6798;" transform="translate(260,272)" />
<polygon points="20,0  0,34  40,34" style="fill:#27852e;" transform="translate(240,272)" />
<polygon points="20,34  0,0  40,0" style="fill:#2a6798;" transform="translate(220,272)" />
<polygon points="20,0  0,34  40,34" style="fill:#9dcca0;" transform="translate(200,272)" />
<polygon points="20,34  0,0  40,0" style="fill:#9ebdd5;" transform="translate(180,272)" />
<polygon points="20,0  0,34  40,34" style="fill:#3b9942;" transform="translate(160,272)" />
<polygon points="20,34  0,0  40,0" style="fill:#3e7bac;" transform="translate(140,272)" />
<polygon points="20,0  0,34  40,34" style="fill:#3b9942;" transform="translate(120,272)" />
<polygon points="20,34  0,0  40,0" style="fill:#3e7bac;" transform="translate(100,272)" />
<polygon points="20,0  0,34  40,34" style="fill:#27852e;" transform="translate(80,272)" />
<polygon points="20,34  0,0  40,0" style="fill:#2a6798;" transform="translate(60,272)" />
<polygon points="20,0  0,34  40,34" style="fill:#9dcca0;" transform="translate(40,272)" />
<polygon points="20,34  0,0  40,0" style="fill:#9ebdd5;" transform="translate(20,272)" />
<polygon points="20,34  0,0  40,0" style="fill:#9ebdd5;" transform="translate(320,238)" />
<polygon points="20,0  0,34  40,34" style="fill:#9dcca0;" transform="translate(300,238)" />
<polygon points="20,34  0,0  40,0" style="fill:#2a6798;" transform="translate(280,238)" />
<polygon points="20,0  0,34  40,34" style="fill:#27852e;" transform="translate(260,238)" />
<polygon points="20,34  0,0  40,0" style="fill:#2a6798;" transform="translate(240,238)" />
<polygon points="20,0  0,34  40,34" style="fill:#27852e;" transform="translate(220,238)" />
<polygon points="20,34  0,0  40,0" style="fill:#2a6798;" transform="translate(200,238)" />
<polygon points="20,0  0,34  40,34" style="fill:#9dcca0;" transform="translate(180,238)" />
<polygon points="20,34  0,0  40,0" style="fill:#9ebdd5;" transform="translate(160,238)" />
<polygon points="20,0  0,34  40,34" style="fill:#3b9942;" transform="translate(140,238)" />
<polygon points="20,34  0,0  40,0" style="fill:#3e7bac;" transform="translate(120,238)" />
<polygon points="20,0  0,34  40,34" style="fill:#3b9942;" transform="translate(100,238)" />
<polygon points="20,34  0,0  40,0" style="fill:#2a6798;" transform="translate(80,238)" />
<polygon points="20,0  0,34  40,34" style="fill:#27852e;" transform="translate(60,238)" />
<polygon points="20,34  0,0  40,0" style="fill:#2a6798;" transform="translate(40,238)" />
<polygon points="20,0  0,34  40,34" style="fill:#9dcca0;" transform="translate(20,238)" />
<polygon points="20,34  0,0  40,0" style="fill:#9ebdd5;" transform="translate(0,238)" />
<polygon points="20,0  0,34  40,34" style="fill:#9dcca0;" transform="translate(320,204)" />
<polygon points="20,34  0,0  40,0" style="fill:#2a6798;" transform="translate(300,204)" />
<polygon points="20,0  0,34  40,34" style="fill:#27852e;" transform="translate(280,204)" />
<polygon points="20,34  0,0  40,0" style="fill:#2a6798;" transform="translate(260,204)" />
<polygon points="20,0  0,34  40,34" style="fill:#27852e;" transform="translate(240,204)" />
<polygon points="20,34  0,0  40,0" style="fill:#9ebdd5;" transform="translate(220,204)" />
<polygon points="20,0  0,34  40,34" style="fill:#9dcca0;" transform="translate(200,204)" />
<polygon points="20,34  0,0  40,0" style="fill:#9ebdd5;" transform="translate(180,204)" />
<polygon points="20,0  0,34  40,34" style="fill:#9dcca0;" transform="translate(160,204)" />
<polygon points="20,34  0,0  40,0" style="fill:#9ebdd5;" transform="translate(140,204)" />
<polygon points="20,0  0,34  40,34" style="fill:#9dcca0;" transform="translate(120,204)" />
<polygon points="20,34  0,0  40,0" style="fill:#9ebdd5;" transform="translate(100,204)" />
<polygon points="20,0  0,34  40,34" style="fill:#27852e;" transform="translate(80,204)" />
<polygon points="20,34  0,0  40,0" style="fill:#2a6798;" transform="translate(60,204)" />
<polygon points="20,0  0,34  40,34" style="fill:#27852e;" transform="translate(40,204)" />
<polygon points="20,34  0,0  40,0" style="fill:#2a6798;" transform="translate(20,204)" />
<polygon points="20,0  0,34  40,34" style="fill:#27852e;" transform="translate(0,204)" />
<polygon points="20,0  0,34  40,34" style="fill:#27852e;" transform="translate(300,170)" />
<polygon points="20,34  0,0  40,0" style="fill:#3e7bac;" transform="translate(280,170)" />
<polygon points="20,0  0,34  40,34" style="fill:#3b9942;" transform="translate(260,170)" />
<polygon points="20,34  0,0  40,0" style="fill:#3e7bac;" transform="translate(240,170)" />
<polygon points="20,0  0,34  40,34" style="fill:#9dcca0;" transform="translate(220,170)" />
<polygon points="20,34  0,0  40,0" style="fill:#9ebdd5;" transform="translate(200,170)" />
<polygon points="20,0  0,34  40,34" style="fill:#9dcca0;" transform="translate(180,170)" />
<polygon points="20,34  0,0  40,0" style="fill:#9ebdd5;" transform="translate(160,170)" />
<polygon points="20,0  0,34  40,34" style="fill:#9dcca0;" transform="translate(140,170)" />
<polygon points="20,34  0,0  40,0" style="fill:#9ebdd5;" transform="translate(120,170)" />
<polygon points="20,0  0,34  40,34" style="fill:#9dcca0;" transform="translate(100,170)" />
<polygon points="20,34  0,0  40,0" style="fill:#2a6798;" transform="translate(80,170)" />
<polygon points="20,0  0,34  40,34" style="fill:#27852e;" transform="translate(60,170)" />
<polygon points="20,34  0,0  40,0" style="fill:#2a6798;" transform="translate(40,170)" />
<polygon points="20,0  0,34  40,34" style="fill:#27852e;" transform="translate(20,170)" />
<polygon points="20,0  0,34  40,34" style="fill:#3b9942;" transform="translate(280,136)" />
<polygon points="20,34  0,0  40,0" style="fill:#3e7bac;" transform="translate(260,136)" />
<polygon points="20,0  0,34  40,34" style="fill:#3b9942;" transform="translate(240,136)" />
<polygon points="20,34  0,0  40,0" style="fill:#9ebdd5;" transform="translate(220,136)" />
<polygon points="20,0  0,34  40,34" style="fill:#9dcca0;" transform="translate(200,136)" />
<polygon points="20,34  0,0  40,0" style="fill:#9ebdd5;" transform="translate(180,136)" />
<polygon points="20,0  0,34  40,34" style="fill:#9dcca0;" transform="translate(160,136)" />
<polygon points="20,34  0,0  40,0" style="fill:#9ebdd5;" transform="translate(140,136)" />
<polygon points="20,0  0,34  40,34" style="fill:#9dcca0;" transform="translate(120,136)" />
<polygon points="20,34  0,0  40,0" style="fill:#9ebdd5;" transform="translate(100,136)" />
<polygon points="20,0  0,34  40,34" style="fill:#9dcca0;" transform="translate(80,136)" />
<polygon points="20,34  0,0  40,0" style="fill:#9ebdd5;" transform="translate(60,136)" />
<polygon points="20,0  0,34  40,34" style="fill:#9dcca0;" transform="translate(40,136)" />
<polygon points="20,0  0,34  40,34" style="fill:#3b9942;" transform="translate(260,102)" />
<polygon points="20,34  0,0  40,0" style="fill:#9ebdd5;" transform="translate(240,102)" />
<polygon points="20,0  0,34  40,34" style="fill:#9dcca0;" transform="translate(220,102)" />
<polygon points="20,34  0,0  40,0" style="fill:#2a6798;" transform="translate(200,102)" />
<polygon points="20,0  0,34  40,34" style="fill:#9dcca0;" transform="translate(180,102)" />
<polygon points="20,34  0,0  40,0" style="fill:#9ebdd5;" transform="translate(160,102)" />
<polygon points="20,0  0,34  40,34" style="fill:#9dcca0;" transform="translate(140,102)" />
<polygon points="20,34  0,0  40,0" style="fill:#3e7bac;" transform="translate(120,102)" />
<polygon points="20,0  0,34  40,34" style="fill:#3b9942;" transform="translate(100,102)" />
<polygon points="20,34  0,0  40,0" style="fill:#3e7bac;" transform="translate(80,102)" />
<polygon points="20,0  0,34  40,34" style="fill:#3b9942;" transform="translate(60,102)" />
<polygon points="20,0  0,34  40,34" style="fill:#9dcca0;" transform="translate(240,68)" />
<polygon points="20,34  0,0  40,0" style="fill:#2a6798;" transform="translate(220,68)" />
<polygon points="20,0  0,34  40,34" style="fill:#27852e;" transform="translate(200,68)" />
<polygon points="20,34  0,0  40,0" style="fill:#2a6798;" transform="translate(180,68)" />
<polygon points="20,0  0,34  40,34" style="fill:#27852e;" transform="translate(160,68)" />
<polygon points="20,34  0,0  40,0" style="fill:#2a6798;" transform="translate(140,68)" />
<polygon points="20,0  0,34  40,34" style="fill:#3b9942;" transform="translate(120,68)" />
<polygon points="20,34  0,0  40,0" style="fill:#3e7bac;" transform="translate(100,68)" />
<polygon points="20,0  0,34  40,34" style="fill:#3b9942;" transform="translate(80,68)" />
<polygon points="20,0  0,34  40,34" style="fill:#27852e;" transform="translate(220,34)" />
<polygon points="20,34  0,0  40,0" style="fill:#2a6798;" transform="translate(200,34)" />
<polygon points="20,0  0,34  40,34" style="fill:#27852e;" transform="translate(180,34)" />
<polygon points="20,34  0,0  40,0" style="fill:#2a6798;" transform="translate(160,34)" />
<polygon points="20,0  0,34  40,34" style="fill:#27852e;" transform="translate(140,34)" />
<polygon points="20,34  0,0  40,0" style="fill:#2a6798;" transform="translate(120,34)" />
<polygon points="20,0  0,34  40,34" style="fill:#27852e;" transform="translate(100,34)" />
<polygon points="20,0  0,34  40,34" style="fill:#27852e;" transform="translate(200,0)" />
<polygon points="20,34  0,0  40,0" style="fill:#9ebdd5;" transform="translate(180,0)" />
<polygon points="20,0  0,34  40,34" style="fill:#9dcca0;" transform="translate(160,0)" />
<polygon points="20,34  0,0  40,0" style="fill:#9ebdd5;" transform="translate(140,0)" />
<polygon points="20,0  0,34  40,34" style="fill:#9dcca0;" transform="translate(120,0)" />
</g>
</g>
</g>
<g transform="translate(148.0,497.0)scale(0.5)translate(-180,-153)">
<g style="transform: translate(0,207)">
<g style="stroke:none;stroke-width:0;">
<polygon points="20,34  0,0  40,0" style="fill:#9ebdd5;" transform="translate(300,272)" />
<polygon points="20,0  0,34  40,34" style="fill:#27852e;" transform="translate(280,272)" />
<polygon points="20,34  0,0  40,0" style="fill:#2a6798;" transform="translate(260,272)" />
<polygon points="20,0  0,34  40,34" style="fill:#27852e;" transform="translate(240,272)" />
<polygon points="20,34  0,0  40,0" style="fill:#2a6798;" transform="translate(220,272)" />
<polygon points="20,0  0,34  40,34" style="fill:#9dcca0;" transform="translate(200,272)" />
<polygon points="20,34  0,0  40,0" style="fill:#9ebdd5;" transform="translate(180,272)" />
<polygon points="20,0  0,34  40,34" style="fill:#3b9942;" transform="translate(160,272)" />
<polygon points="20,34  0,0  40,0" style="fill:#3e7bac;" transform="translate(140,272)" />
<polygon points="20,0  0,34  40,34" style="fill:#3b9942;" transform="translate(120,272)" />
<polygon points="20,34  0,0  40,0" style="fill:#3e7bac;" transform="translate(100,272)" />
<polygon points="20,0  0,34  40,34" style="fill:#27852e;" transform="translate(80,272)" />
<polygon points="20,34  0,0  40,0" style="fill:#2a6798;" transform="translate(60,272)" />
<polygon points="20,0  0,34  40,34" style="fill:#9dcca0;" transform="translate(40,272)" />
<polygon points="20,34  0,0  40,0" style="fill:#9ebdd5;" transform="translate(20,272)" />
<polygon points="20,34  0,0  40,0" style="fill:#9ebdd5;" transform="translate(320,238)" />
<polygon points="20,0  0,34  40,34" style="fill:#9dcca0;" transform="translate(300,238)" />
<polygon points="20,34  0,0  40,0" style="fill:#2a6798;" transform="translate(280,238)" />
<polygon points="20,0  0,34  40,34" style="fill:#27852e;" transform="translate(260,238)" />
<polygon points="20,34  0,0  40,0" style="fill:#2a6798;" transform="translate(240,238)" />
<polygon points="20,0  0,34  40,34" style="fill:#27852e;" transform="translate(220,238)" />
<polygon points="20,34  0,0  40,0" style="fill:#2a6798;" transform="translate(200,238)" />
<polygon points="20,0  0,34  40,34" style="fill:#9dcca0;" transform="translate(180,238)" />
<polygon points="20,34  0,0  40,0" style="fill:#9ebdd5;" transform="translate(160,238)" />
<polygon points="20,0  0,34  40,34" style="fill:#3b9942;" transform="translate(140,238)" />
<polygon points="20,34  0,0  40,0" style="fill:#3e7bac;" transform="translate(120,238)" />
<polygon points="20,0  0,34  40,34" style="fill:#3b9942;" transform="translate(100,238)" />
<polygon points="20,34  0,0  40,0" style="fill:#2a6798;" transform="translate(80,238)" />
<polygon points="20,0  0,34  40,34" style="fill:#27852e;" transform="translate(60,238)" />
<polygon points="20,34  0,0  40,0" style="fill:#2a6798;" transform="translate(40,238)" />
<polygon points="20,0  0,34  40,34" style="fill:#9dcca0;" transform="translate(20,238)" />
<polygon points="20,34  0,0  40,0" style="fill:#9ebdd5;" transform="translate(0,238)" />
<polygon points="20,0  0,34  40,34" style="fill:#9dcca0;" transform="translate(320,204)" />
<polygon points="20,34  0,0  40,0" style="fill:#2a6798;" transform="translate(300,204)" />
<polygon points="20,0  0,34  40,34" style="fill:#27852e;" transform="translate(280,204)" />
<polygon points="20,34  0,0  40,0" style="fill:#2a6798;" transform="translate(260,204)" />
<polygon points="20,0  0,34  40,34" style="fill:#27852e;" transform="translate(240,204)" />
<polygon points="20,34  0,0  40,0" style="fill:#9ebdd5;" transform="translate(220,204)" />
<polygon points="20,0  0,34  40,34" style="fill:#9dcca0;" transform="translate(200,204)" />
<polygon points="20,34  0,0  40,0" style="fill:#9ebdd5;" transform="translate(180,204)" />
<polygon points="20,0  0,34  40,34" style="fill:#9dcca0;" transform="translate(160,204)" />
<polygon points="20,34  0,0  40,0" style="fill:#9ebdd5;" transform="translate(140,204)" />
<polygon points="20,0  0,34  40,34" style="fill:#9dcca0;" transform="translate(120,204)" />
<polygon points="20,34  0,0  40,0" style="fill:#9ebdd5;" transform="translate(100,204)" />
<polygon points="20,0  0,34  40,34" style="fill:#27852e;" transform="translate(80,204)" />
<polygon points="20,34  0,0  40,0" style="fill:#2a6798;" transform="translate(60,204)" />
<polygon points="20,0  0,34  40,34" style="fill:#27852e;" transform="translate(40,204)" />
<polygon points="20,34  0,0  40,0" style="fill:#2a6798;" transform="translate(20,204)" />
<polygon points="20,0  0,34  40,34" style="fill:#27852e;" transform="translate(0,204)" />
<polygon points="20,0  0,34  40,34" style="fill:#27852e;" transform="translate(300,170)" />
<polygon points="20,34  0,0  40,0" style="fill:#3e7bac;" transform="translate(280,170)" />
<polygon points="20,0  0,34  40,34" style="fill:#3b9942;" transform="translate(260,170)" />
<polygon points="20,34  0,0  40,0" style="fill:#3e7bac;" transform="translate(240,170)" />
<polygon points="20,0  0,34  40,34" style="fill:#9dcca0;" transform="translate(220,170)" />
<polygon points="20,34  0,0  40,0" style="fill:#9ebdd5;" transform="translate(200,170)" />
<polygon points="20,0  0,34  40,34" style="fill:#9dcca0;" transform="translate(180,170)" />
<polygon points="20,34  0,0  40,0" style="fill:#9ebdd5;" transform="translate(160,170)" />
<polygon points="20,0  0,34  40,34" style="fill:#9dcca0;" transform="translate(140,170)" />
<polygon points="20,34  0,0  40,0" style="fill:#9ebdd5;" transform="translate(120,170)" />
<polygon points="20,0  0,34  40,34" style="fill:#9dcca0;" transform="translate(100,170)" />
<polygon points="20,34  0,0  40,0" style="fill:#2a6798;" transform="translate(80,170)" />
<polygon points="20,0  0,34  40,34" style="fill:#27852e;" transform="translate(60,170)" />
<polygon points="20,34  0,0  40,0" style="fill:#2a6798;" transform="translate(40,170)" />
<polygon points="20,0  0,34  40,34" style="fill:#27852e;" transform="translate(20,170)" />
<polygon points="20,0  0,34  40,34" style="fill:#3b9942;" transform="translate(280,136)" />
<polygon points="20,34  0,0  40,0" style="fill:#3e7bac;" transform="translate(260,136)" />
<polygon points="20,0  0,34  40,34" style="fill:#3b9942;" transform="translate(240,136)" />
<polygon points="20,34  0,0  40,0" style="fill:#9ebdd5;" transform="translate(220,136)" />
<polygon points="20,0  0,34  40,34" style="fill:#9dcca0;" transform="translate(200,136)" />
<polygon points="20,34  0,0  40,0" style="fill:#9ebdd5;" transform="translate(180,136)" />
<polygon points="20,0  0,34  40,34" style="fill:#9dcca0;" transform="translate(160,136)" />
<polygon points="20,34  0,0  40,0" style="fill:#9ebdd5;" transform="translate(140,136)" />
<polygon points="20,0  0,34  40,34" style="fill:#9dcca0;" transform="translate(120,136)" />
<polygon points="20,34  0,0  40,0" style="fill:#9ebdd5;" transform="translate(100,136)" />
<polygon points="20,0  0,34  40,34" style="fill:#9dcca0;" transform="translate(80,136)" />
<polygon points="20,34  0,0  40,0" style="fill:#9ebdd5;" transform="translate(60,136)" />
<polygon points="20,0  0,34  40,34" style="fill:#9dcca0;" transform="translate(40,136)" />
<polygon points="20,0  0,34  40,34" style="fill:#3b9942;" transform="translate(260,102)" />
<polygon points="20,34  0,0  40,0" style="fill:#9ebdd5;" transform="translate(240,102)" />
<polygon points="20,0  0,34  40,34" style="fill:#9dcca0;" transform="translate(220,102)" />
<polygon points="20,34  0,0  40,0" style="fill:#2a6798;" transform="translate(200,102)" />
<polygon points="20,0  0,34  40,34" style="fill:#9dcca0;" transform="translate(180,102)" />
<polygon points="20,34  0,0  40,0" style="fill:#9ebdd5;" transform="translate(160,102)" />
<polygon points="20,0  0,34  40,34" style="fill:#9dcca0;" transform="translate(140,102)" />
<polygon points="20,34  0,0  40,0" style="fill:#3e7bac;" transform="translate(120,102)" />
<polygon points="20,0  0,34  40,34" style="fill:#3b9942;" transform="translate(100,102)" />
<polygon points="20,34  0,0  40,0" style="fill:#3e7bac;" transform="translate(80,102)" />
<polygon points="20,0  0,34  40,34" style="fill:#3b9942;" transform="translate(60,102)" />
<polygon points="20,0  0,34  40,34" style="fill:#9dcca0;" transform="translate(240,68)" />
<polygon points="20,34  0,0  40,0" style="fill:#2a6798;" transform="translate(220,68)" />
<polygon points="20,0  0,34  40,34" style="fill:#27852e;" transform="translate(200,68)" />
<polygon points="20,34  0,0  40,0" style="fill:#2a6798;" transform="translate(180,68)" />
<polygon points="20,0  0,34  40,34" style="fill:#27852e;" transform="translate(160,68)" />
<polygon points="20,34  0,0  40,0" style="fill:#2a6798;" transform="translate(140,68)" />
<polygon points="20,0  0,34  40,34" style="fill:#3b9942;" transform="translate(120,68)" />
<polygon points="20,34  0,0  40,0" style="fill:#3e7bac;" transform="translate(100,68)" />
<polygon points="20,0  0,34  40,34" style="fill:#3b9942;" transform="translate(80,68)" />
<polygon points="20,0  0,34  40,34" style="fill:#27852e;" transform="translate(220,34)" />
<polygon points="20,34  0,0  40,0" style="fill:#2a6798;" transform="translate(200,34)" />
<polygon points="20,0  0,34  40,34" style="fill:#27852e;" transform="translate(180,34)" />
<polygon points="20,34  0,0  40,0" style="fill:#2a6798;" transform="translate(160,34)" />
<polygon points="20,0  0,34  40,34" style="fill:#27852e;" transform="translate(140,34)" />
<polygon points="20,34  0,0  40,0" style="fill:#2a6798;" transform="translate(120,34)" />
<polygon points="20,0  0,34  40,34" style="fill:#27852e;" transform="translate(100,34)" />
<polygon points="20,0  0,34  40,34" style="fill:#27852e;" transform="translate(200,0)" />
<polygon points="20,34  0,0  40,0" style="fill:#9ebdd5;" transform="translate(180,0)" />
<polygon points="20,0  0,34  40,34" style="fill:#9dcca0;" transform="translate(160,0)" />
<polygon points="20,34  0,0  40,0" style="fill:#9ebdd5;" transform="translate(140,0)" />
<polygon points="20,0  0,34  40,34" style="fill:#9dcca0;" transform="translate(120,0)" />
</g>
</g>
</g>
<g transform="translate(812.0,497.0)scale(0.5)translate(-180,-153)">
<g style="transform: translate(0,207)">
<g style="stroke:none;stroke-width:0;">
<polygon points="20,34  0,0  40,0" style="fill:#9ebdd5;" transform="translate(300,272)" />
<polygon points="20,0  0,34  40,34" style="fill:#27852e;" transform="translate(280,272)" />
<polygon points="20,34  0,0  40,0" style="fill:#2a6798;" transform="translate(260,272)" />
<polygon points="20,0  0,34  40,34" style="fill:#27852e;" transform="translate(240,272)" />
<polygon points="20,34  0,0  40,0" style="fill:#2a6798;" transform="translate(220,272)" />
<polygon points="20,0  0,34  40,34" style="fill:#9dcca0;" transform="translate(200,272)" />
<polygon points="20,34  0,0  40,0" style="fill:#9ebdd5;" transform="translate(180,272)" />
<polygon points="20,0  0,34  40,34" style="fill:#3b9942;" transform="translate(160,272)" />
<polygon points="20,34  0,0  40,0" style="fill:#3e7bac;" transform="translate(140,272)" />
<polygon points="20,0  0,34  40,34" style="fill:#3b9942;" transform="translate(120,272)" />
<polygon points="20,34  0,0  40,0" style="fill:#3e7bac;" transform="translate(100,272)" />
<polygon points="20,0  0,34  40,34" style="fill:#27852e;" transform="translate(80,272)" />
<polygon points="20,34  0,0  40,0" style="fill:#2a6798;" transform="translate(60,272)" />
<polygon points="20,0  0,34  40,34" style="fill:#9dcca0;" transform="translate(40,272)" />
<polygon points="20,34  0,0  40,0" style="fill:#9ebdd5;" transform="translate(20,272)" />
<polygon points="20,34  0,0  40,0" style="fill:#9ebdd5;" transform="translate(320,238)" />
<polygon points="20,0  0,34  40,34" style="fill:#9dcca0;" transform="translate(300,238)" />
<polygon points="20,34  0,0  40,0" style="fill:#2a6798;" transform="translate(280,238)" />
<polygon points="20,0  0,34  40,34" style="fill:#27852e;" transform="translate(260,238)" />
<polygon points="20,34  0,0  40,0" style="fill:#2a6798;" transform="translate(240,238)" />
<polygon points="20,0  0,34  40,34" style="fill:#27852e;" transform="translate(220,238)" />
<polygon points="20,34  0,0  40,0" style="fill:#2a6798;" transform="translate(200,238)" />
<polygon points="20,0  0,34  40,34" style="fill:#9dcca0;" transform="translate(180,238)" />
<polygon points="20,34  0,0  40,0" style="fill:#9ebdd5;" transform="translate(160,238)" />
<polygon points="20,0  0,34  40,34" style="fill:#3b9942;" transform="translate(140,238)" />
<polygon points="20,34  0,0  40,0" style="fill:#3e7bac;" transform="translate(120,238)" />
<polygon points="20,0  0,34  40,34" style="fill:#3b9942;" transform="translate(100,238)" />
<polygon points="20,34  0,0  40,0" style="fill:#2a6798;" transform="translate(80,238)" />
<polygon points="20,0  0,34  40,34" style="fill:#27852e;" transform="translate(60,238)" />
<polygon points="20,34  0,0  40,0" style="fill:#2a6798;" transform="translate(40,238)" />
<polygon points="20,0  0,34  40,34" style="fill:#9dcca0;" transform="translate(20,238)" />
<polygon points="20,34  0,0  40,0" style="fill:#9ebdd5;" transform="translate(0,238)" />
<polygon points="20,0  0,34  40,34" style="fill:#9dcca0;" transform="translate(320,204)" />
<polygon points="20,34  0,0  40,0" style="fill:#2a6798;" transform="translate(300,204)" />
<polygon points="20,0  0,34  40,34" style="fill:#27852e;" transform="translate(280,204)" />
<polygon points="20,34  0,0  40,0" style="fill:#2a6798;" transform="translate(260,204)" />
<polygon points="20,0  0,34  40,34" style="fill:#27852e;" transform="translate(240,204)" />
<polygon points="20,34  0,0  40,0" style="fill:#9ebdd5;" transform="translate(220,204)" />
<polygon points="20,0  0,34  40,34" style="fill:#9dcca0;" transform="translate(200,204)" />
<polygon points="20,34  0,0  40,0" style="fill:#9ebdd5;" transform="translate(180,204)" />
<polygon points="20,0  0,34  40,34" style="fill:#9dcca0;" transform="translate(160,204)" />
<polygon points="20,34  0,0  40,0" style="fill:#9ebdd5;" transform="translate(140,204)" />
<polygon points="20,0  0,34  40,34" style="fill:#9dcca0;" transform="translate(120,204)" />
<polygon points="20,34  0,0  40,0" style="fill:#9ebdd5;" transform="translate(100,204)" />
<polygon points="20,0  0,34  40,34" style="fill:#27852e;" transform="translate(80,204)" />
<polygon points="20,34  0,0  40,0" style="fill:#2a6798;" transform="translate(60,204)" />
<polygon points="20,0  0,34  40,34" style="fill:#27852e;" transform="translate(40,204)" />
<polygon points="20,34  0,0  40,0" style="fill:#2a6798;" transform="translate(20,204)" />
<polygon points="20,0  0,34  40,34" style="fill:#27852e;" transform="translate(0,204)" />
<polygon points="20,0  0,34  40,34" style="fill:#27852e;" transform="translate(300,170)" />
<polygon points="20,34  0,0  40,0" style="fill:#3e7bac;" transform="translate(280,170)" />
<polygon points="20,0  0,34  40,34" style="fill:#3b9942;" transform="translate(260,170)" />
<polygon points="20,34  0,0  40,0" style="fill:#3e7bac;" transform="translate(240,170)" />
<polygon points="20,0  0,34  40,34" style="fill:#9dcca0;" transform="translate(220,170)" />
<polygon points="20,34  0,0  40,0" style="fill:#9ebdd5;" transform="translate(200,170)" />
<polygon points="20,0  0,34  40,34" style="fill:#9dcca0;" transform="translate(180,170)" />
<polygon points="20,34  0,0  40,0" style="fill:#9ebdd5;" transform="translate(160,170)" />
<polygon points="20,0  0,34  40,34" style="fill:#9dcca0;" transform="translate(140,170)" />
<polygon points="20,34  0,0  40,0" style="fill:#9ebdd5;" transform="translate(120,170)" />
<polygon points="20,0  0,34  40,34" style="fill:#9dcca0;" transform="translate(100,170)" />
<polygon points="20,34  0,0  40,0" style="fill:#2a6798;" transform="translate(80,170)" />
<polygon points="20,0  0,34  40,34" style="fill:#27852e;" transform="translate(60,170)" />
<polygon points="20,34  0,0  40,0" style="fill:#2a6798;" transform="translate(40,170)" />
<polygon points="20,0  0,34  40,34" style="fill:#27852e;" transform="translate(20,170)" />
<polygon points="20,0  0,34  40,34" style="fill:#3b9942;" transform="translate(280,136)" />
<polygon points="20,34  0,0  40,0" style="fill:#3e7bac;" transform="translate(260,136)" />
<polygon points="20,0  0,34  40,34" style="fill:#3b9942;" transform="translate(240,136)" />
<polygon points="20,34  0,0  40,0" style="fill:#9ebdd5;" transform="translate(220,136)" />
<polygon points="20,0  0,34  40,34" style="fill:#9dcca0;" transform="translate(200,136)" />
<polygon points="20,34  0,0  40,0" style="fill:#9ebdd5;" transform="translate(180,136)" />
<polygon points="20,0  0,34  40,34" style="fill:#9dcca0;" transform="translate(160,136)" />
<polygon points="20,34  0,0  40,0" style="fill:#9ebdd5;" transform="translate(140,136)" />
<polygon points="20,0  0,34  40,34" style="fill:#9dcca0;" transform="translate(120,136)" />
<polygon points="20,34  0,0  40,0" style="fill:#9ebdd5;" transform="translate(100,136)" />
<polygon points="20,0  0,34  40,34" style="fill:#9dcca0;" transform="translate(80,136)" />
<polygon points="20,34  0,0  40,0" style="fill:#9ebdd5;" transform="translate(60,136)" />
<polygon points="20,0  0,34  40,34" style="fill:#9dcca0;" transform="translate(40,136)" />
<polygon points="20,0  0,34  40,34" style="fill:#3b9942;" transform="translate(260,102)" />
<polygon points="20,34  0,0  40,0" style="fill:#9ebdd5;" transform="translate(240,102)" />
<polygon points="20,0  0,34  40,34" style="fill:#9dcca0;" transform="translate(220,102)" />
<polygon points="20,34  0,0  40,0" style="fill:#2a6798;" transform="translate(200,102)" />
<polygon points="20,0  0,34  40,34" style="fill:#9dcca0;" transform="translate(180,102)" />
<polygon points="20,34  0,0  40,0" style="fill:#9ebdd5;" transform="translate(160,102)" />
<polygon points="20,0  0,34  40,34" style="fill:#9dcca0;" transform="translate(140,102)" />
<polygon points="20,34  0,0  40,0" style="fill:#3e7bac;" transform="translate(120,102)" />
<polygon points="20,0  0,34  40,34" style="fill:#3b9942;" transform="translate(100,102)" />
<polygon points="20,34  0,0  40,0" style="fill:#3e7bac;" transform="translate(80,102)" />
<polygon points="20,0  0,34  40,34" style="fill:#3b9942;" transform="translate(60,102)" />
<polygon points="20,0  0,34  40,34" style="fill:#9dcca0;" transform="translate(240,68)" />
<polygon points="20,34  0,0  40,0" style="fill:#2a6798;" transform="translate(220,68)" />
<polygon points="20,0  0,34  40,34" style="fill:#27852e;" transform="translate(200,68)" />
<polygon points="20,34  0,0  40,0" style="fill:#2a6798;" transform="translate(180,68)" />
<polygon points="20,0  0,34  40,34" style="fill:#27852e;" transform="translate(160,68)" />
<polygon points="20,34  0,0  40,0" style="fill:#2a6798;" transform="translate(140,68)" />
<polygon points="20,0  0,34  40,34" style="fill:#3b9942;" transform="translate(120,68)" />
<polygon points="20,34  0,0  40,0" style="fill:#3e7bac;" transform="translate(100,68)" />
<polygon points="20,0  0,34  40,34" style="fill:#3b9942;" transform="translate(80,68)" />
<polygon points="20,0  0,34  40,34" style="fill:#27852e;" transform="translate(220,34)" />
<polygon points="20,34  0,0  40,0" style="fill:#2a6798;" transform="translate(200,34)" />
<polygon points="20,0  0,34  40,34" style="fill:#27852e;" transform="translate(180,34)" />
<polygon points="20,34  0,0  40,0" style="fill:#2a6798;" transform="translate(160,34)" />
<polygon points="20,0  0,34  40,34" style="fill:#27852e;" transform="translate(140,34)" />
<polygon points="20,34  0,0  40,0" style="fill:#2a6798;" transform="translate(120,34)" />
<polygon points="20,0  0,34  40,34" style="fill:#27852e;" transform="translate(100,34)" />
<polygon points="20,0  0,34  40,34" style="fill:#27852e;" transform="translate(200,0)" />
<polygon points="20,34  0,0  40,0" style="fill:#9ebdd5;" transform="translate(180,0)" />
<polygon points="20,0  0,34  40,34" style="fill:#9dcca0;" transform="translate(160,0)" />
<polygon points="20,34  0,0  40,0" style="fill:#9ebdd5;" transform="translate(140,0)" />
<polygon points="20,0  0,34  40,34" style="fill:#9dcca0;" transform="translate(120,0)" />
</g>
</g>
</g>
<g fill="#7e57c2">
<g transform="translate(328, 206)">
<rect x="0" y="0" width="266" height="100" transform="translate(-133.0,-50.0)" fill="#0277bd"/>
<rect x="0" y="-26" width="172" height="24" transform="translate(-86.0,-12.0)" fill="#e1f5fe"/>
<text x="0" y="14" text-anchor="middle" transform="translate(0,2.5%)" dominant-baseline="central" fill="#29b6f6">symbc</text>
<polygon points="-64,-176  40,-176  64,-143  64,-24  -64,-24" fill="#b2dfdb"/>
<polygon points="40,-176  40,-143  64,-143" fill="#80cbc4"/>
<polygon points="-64,-24  -70,-18  58,-18  64,-24" fill="#b2dfdb"/>
<g fill="#80cbc4">
<text x="-54" y="-136" font-size="24px">public</text>
<text x="-54" y="-109" font-size="24px">static</text>
<text x="-54" y="-82" font-size="24px">void main</text>
<text x="-54" y="-55" font-size="24px">() {...</text>
</g>
</g>
</g>
<g fill="#7e57c2">
<g transform="translate(632, 206)">
<rect x="0" y="0" width="266" height="100" transform="translate(-133.0,-50.0)" fill="#ef6c00"/>
<rect x="0" y="-26" width="172" height="24" transform="translate(-86.0,-12.0)" fill="#fff3e0"/>
<text x="0" y="14" text-anchor="middle" transform="translate(0,2.5%)" dominant-baseline="central" fill="#ffa726">KLEE</text>
<polygon points="-64,-176  40,-176  64,-143  64,-24  -64,-24" fill="#b2dfdb"/>
<polygon points="40,-176  40,-143  64,-143" fill="#80cbc4"/>
<polygon points="-64,-24  -70,-18  58,-18  64,-24" fill="#b2dfdb"/>
<g fill="#80cbc4">
<text x="-54" y="-136" font-size="24px">#ifdef</text>
<text x="-54" y="-109" font-size="24px">void main</text>
<text x="-54" y="-82" font-size="24px">(argc) {...</text>
<text x="-54" y="-55" font-size="24px">&#173;</text>
</g>
</g>
</g>
<g fill="#7e57c2">
<g transform="translate(148, 456)">
<rect x="0" y="0" width="266" height="100" transform="translate(-133.0,-50.0)" fill="#283593"/>
<rect x="0" y="-26" width="172" height="24" transform="translate(-86.0,-12.0)" fill="#e8eaf6"/>
<text x="0" y="14" text-anchor="middle" transform="translate(0,2.5%)" dominant-baseline="central" fill="#9fa8da">COASTAL</text>
<polygon points="-64,-176  40,-176  64,-143  64,-24  -64,-24" fill="#b2dfdb"/>
<polygon points="40,-176  40,-143  64,-143" fill="#80cbc4"/>
<polygon points="-64,-24  -70,-18  58,-18  64,-24" fill="#b2dfdb"/>
<g fill="#80cbc4">
<text x="-54" y="-136" font-size="24px">public</text>
<text x="-54" y="-109" font-size="24px">static</text>
<text x="-54" y="-82" font-size="24px">void main</text>
<text x="-54" y="-55" font-size="24px">() {...</text>
</g>
</g>
</g>
<g fill="#7e57c2">
<g transform="translate(812, 456)">
<rect x="0" y="0" width="266" height="100" transform="translate(-133.0,-50.0)" fill="#ad1457"/>
<rect x="0" y="-26" width="172" height="24" transform="translate(-86.0,-12.0)" fill="#fce4ec"/>
<text x="0" y="14" text-anchor="middle" transform="translate(0,2.5%)" dominant-baseline="central" fill="#f48fb1">DART</text>
<polygon points="-64,-176  40,-176  64,-143  64,-24  -64,-24" fill="#b2dfdb"/>
<polygon points="40,-176  40,-143  64,-143" fill="#80cbc4"/>
<polygon points="-64,-24  -70,-18  58,-18  64,-24" fill="#b2dfdb"/>
<g fill="#80cbc4">
<text x="-54" y="-136" font-size="24px">public</text>
<text x="-54" y="-109" font-size="24px">static</text>
<text x="-54" y="-82" font-size="24px">void main</text>
<text x="-54" y="-55" font-size="24px">() {...</text>
</g>
</g>
</g>
<g fill="#7e57c2" stroke="none">
<g transform="translate(480, 500)">
<polygon points="0,0  88,41  0,82  -88,41" fill="#ff8a80"/>
<polygon points="-88,41  -88,123  0,164  0,82" fill="#f44336"/>
<polygon points="0,82  0,164  88,123  88,41" fill="#c62828"/>
</g>
</g>
<g stroke-width="6" fill="none" stroke="#212121">
<line x1="348.0" y1="384.0" x2="398.0" y2="495.0"/>
<polyline points="403.7,480.0 398.0,495.0 383.0,489.3" fill="none" stroke-linecap="square" stroke-linejoin="miter"/>
</g>
<g stroke-width="6" fill="none" stroke="#212121">
<line x1="612.0" y1="384.0" x2="561.0" y2="495.0"/>
<polyline points="576.0,489.4 561.0,495.0 555.4,480.0" fill="none" stroke-linecap="square" stroke-linejoin="miter"/>
</g>
<g stroke-width="6" fill="none" stroke="#212121">
<line x1="262.0" y1="568.0" x2="365.0" y2="568.0"/>
<polyline points="353.7,556.7 365.0,568.0 353.7,579.3" fill="none" stroke-linecap="square" stroke-linejoin="miter"/>
</g>
<g stroke-width="6" fill="none" stroke="#212121">
<line x1="698.0" y1="568.0" x2="594.0" y2="568.0"/>
<polyline points="605.3,579.3 594.0,568.0 605.3,556.7" fill="none" stroke-linecap="square" stroke-linejoin="miter"/>
</g>
</g><!-- share -->
</g>
</svg>
