<svg viewBox="0 0 960.000 720.000">
<g font-weight="800" font-family="sans-serif" font-size="52px">
<defs><clipPath id="cp_store"><rect x="0" y="0" width="960.000" height="720.000"/></clipPath></defs>
<g clip-path="url(#cp_store)">
<rect x="0" y="0" width="960" height="720" fill="#8d6e63"/>
<polygon points="480,390  920,545  480,700  40,545" fill="#ffebee"/>
<polygon points="40,235  40,545  480,390  480,80" fill="#e57373"/>
<polygon points="480,390  480,80  920,235  920,545" fill="#ef9a9a"/>
<line x1="480" y1="80" x2="920" y2="235" stroke-width="6" fill="none" stroke-linecap="round" stroke="rgba(128,0,0,0.5)"/>
<line x1="40" y1="235" x2="480" y2="80" stroke-width="6" fill="none" stroke-linecap="round" stroke="rgba(128,0,0,0.5)"/>
<line x1="480" y1="390" x2="920" y2="545" stroke-width="6" fill="none" stroke-linecap="round" stroke="rgba(128,0,0,0.5)"/>
<line x1="920" y1="545" x2="480" y2="700" stroke-width="6" fill="none" stroke-linecap="round" stroke="rgba(128,0,0,0.5)"/>
<line x1="480" y1="700" x2="40" y2="545" stroke-width="6" fill="none" stroke-linecap="round" stroke="rgba(128,0,0,0.5)"/>
<line x1="40" y1="545" x2="480" y2="390" stroke-width="6" fill="none" stroke-linecap="round" stroke="rgba(128,0,0,0.5)"/>
<line x1="40" y1="235" x2="40" y2="545" stroke-width="6" fill="none" stroke-linecap="round" stroke="rgba(128,0,0,0.5)"/>
<line x1="920" y1="235" x2="920" y2="545" stroke-width="6" fill="none" stroke-linecap="round" stroke="rgba(128,0,0,0.5)"/>
<line x1="480" y1="80" x2="480" y2="390" stroke-width="6" fill="none" stroke-linecap="round" stroke="rgba(128,0,0,0.5)"/>
<g stroke-width="6" fill="none" stroke-linecap="round" stroke="none">
<g transform="translate(340, 170)">
<polygon points="0,0  88,41  0,82  -88,41" fill="#ff8a80"/>
<polygon points="-88,41  -88,123  0,164  0,82" fill="#f44336"/>
<polygon points="0,82  0,164  88,123  88,41" fill="#c62828"/>
</g>
</g>
<g stroke-width="6" fill="none" stroke-linecap="round" stroke="none">
<g transform="translate(620, 170)">
<polygon points="0,0  88,41  0,82  -88,41" fill="#ff8a80"/>
<polygon points="-88,41  -88,123  0,164  0,82" fill="#f44336"/>
<polygon points="0,82  0,164  88,123  88,41" fill="#c62828"/>
</g>
</g>
<g stroke-width="6" fill="none" stroke-linecap="round" stroke="none">
<g transform="translate(170, 370)">
<polygon points="0,0  88,41  0,82  -88,41" fill="#ff8a80"/>
<polygon points="-88,41  -88,123  0,164  0,82" fill="#f44336"/>
<polygon points="0,82  0,164  88,123  88,41" fill="#c62828"/>
</g>
</g>
<g stroke-width="6" fill="none" stroke-linecap="round" stroke="none">
<g transform="translate(790, 370)">
<polygon points="0,0  88,41  0,82  -88,41" fill="#ff8a80"/>
<polygon points="-88,41  -88,123  0,164  0,82" fill="#f44336"/>
<polygon points="0,82  0,164  88,123  88,41" fill="#c62828"/>
</g>
</g>
<g stroke-width="6" fill="none" stroke-linecap="round" stroke="none">
<g transform="translate(370, 470)">
<polygon points="0,0  88,41  0,82  -88,41" fill="#ff8a80"/>
<polygon points="-88,41  -88,123  0,164  0,82" fill="#f44336"/>
<polygon points="0,82  0,164  88,123  88,41" fill="#c62828"/>
</g>
</g>
<g stroke-width="6" fill="none" stroke-linecap="round" stroke="none">
<g transform="translate(590, 470)">
<polygon points="0,0  88,41  0,82  -88,41" fill="#ff8a80"/>
<polygon points="-88,41  -88,123  0,164  0,82" fill="#f44336"/>
<polygon points="0,82  0,164  88,123  88,41" fill="#c62828"/>
</g>
</g>
<g stroke-width="6" fill="none" stroke-linecap="round" stroke="#212121">
<line x1="286.000" y1="324.000" x2="217.000" y2="386.000"/>
<polyline points="234.974,386.961 217.000,386.000 217.960,368.026" fill="none" stroke-linecap="square" stroke-linejoin="miter"/>
</g>
<g stroke-width="6" fill="none" stroke-linecap="round" stroke="#212121">
<line x1="350.000" y1="344.000" x2="369.000" y2="465.000"/>
<polyline points="379.600,450.452 369.000,465.000 354.452,454.401" fill="none" stroke-linecap="square" stroke-linejoin="miter"/>
</g>
<g stroke-width="6" fill="none" stroke-linecap="round" stroke="#212121">
<line x1="659.000" y1="324.000" x2="742.000" y2="387.000"/>
<polyline points="739.557,369.166 742.000,387.000 724.167,389.443" fill="none" stroke-linecap="square" stroke-linejoin="miter"/>
</g>
<g stroke-width="6" fill="none" stroke-linecap="round" stroke="#212121">
<line x1="630.000" y1="344.000" x2="591.000" y2="465.000"/>
<polyline points="607.019,456.791 591.000,465.000 582.790,448.981" fill="none" stroke-linecap="square" stroke-linejoin="miter"/>
</g>
<g stroke-width="6" fill="none" stroke-linecap="round" stroke="#212121">
<line x1="399.000" y1="80.000" x2="424.000" y2="96.000"/>
<polyline points="420.141,78.419 424.000,96.000 406.419,99.860" fill="none" stroke-linecap="square" stroke-linejoin="miter"/>
</g>
<g stroke-width="6" fill="none" stroke-linecap="round" stroke="#212121">
<line x1="423.000" y1="107.000" x2="386.000" y2="185.000"/>
<polyline points="402.955,178.956 386.000,185.000 379.955,168.045" fill="none" stroke-linecap="square" stroke-linejoin="miter"/>
</g>
<g stroke-width="6" fill="none" stroke-linecap="round" stroke="#212121">
<line x1="433.000" y1="107.000" x2="571.000" y2="187.000"/>
<polyline points="566.372,169.605 571.000,187.000 553.605,191.628" fill="none" stroke-linecap="square" stroke-linejoin="miter"/>
</g>
<path d="M196 70 Q 312 24 399 80" stroke-width="6" fill="none" stroke-linecap="round" stroke="#212121"/>
<rect x="108" y="70" width="176" height="100" transform="translate(-88.000,-50.000)" stroke-width="6" fill="#2e7d32" stroke-linecap="round" stroke="none"/>
<text x="108" y="70" text-anchor="middle" transform="translate(0,2.5%)" dominant-baseline="central" stroke-width="0" fill="#b2ffb6" stroke-linecap="round" stroke="none">result</text>
</g><!-- store -->
</g>
</svg>
